<svg width="10" height="11" viewBox="0 0 10 11" fill="none" xmlns="http://www.w3.org/2000/svg">
<path d="M0.92041 10.1655V4.60205H2.17878V10.1655H0.92041Z" fill="#131313" stroke="#131313"/>
<path d="M2.33319 2.27713V2.27716C2.33319 2.70854 1.98149 3.06021 1.55029 3.06021C1.11814 3.06021 0.766357 2.70819 0.766357 2.27716C0.766357 1.84663 1.11795 1.49463 1.55029 1.49463C1.98171 1.49463 2.33321 1.84626 2.33319 2.27713Z" fill="#131313" stroke="#131313"/>
<path d="M5.26196 4.66419V5.94829L6.1303 5.00231C6.39483 4.71413 6.84262 4.44653 7.4715 4.44653C8.42535 4.44653 8.86474 4.77698 9.10615 5.18632C9.38019 5.65098 9.45852 6.3142 9.45852 7.08036V10.1653H8.20368V7.46992C8.20368 7.06235 8.19454 6.58241 8.03335 6.20399C7.94532 5.99735 7.80478 5.80053 7.58467 5.66091C7.3674 5.52309 7.11537 5.46814 6.84961 5.46814C6.38882 5.46814 5.94957 5.60331 5.66224 6.01547C5.40811 6.38 5.34006 6.87566 5.34006 7.4163V10.1653H4.08594V4.60189H5.26196V4.66419Z" fill="#131313" stroke="#131313"/>
</svg>
