<svg width="14" height="13" viewBox="0 0 14 13" fill="none" xmlns="http://www.w3.org/2000/svg">
<path d="M11.7422 9.45295V9.47027C11.7328 10.6158 10.7979 11.5449 9.65021 11.5449H4.40465C3.25128 11.545 2.31276 10.6064 2.31276 9.45295V4.20746C2.31276 3.05407 3.25127 2.11549 4.40465 2.11549H9.65014C10.8036 2.11549 11.7422 3.05408 11.7422 4.20746V9.45295ZM9.65014 0.876807H4.40465C2.56808 0.876807 1.07407 2.37089 1.07407 4.20746V9.45295C1.07407 11.2896 2.56808 12.7836 4.40465 12.7836H9.65014C11.4869 12.7836 12.9809 11.2895 12.9809 9.45295V4.20746C12.9809 2.37088 11.4868 0.876807 9.65014 0.876807Z" fill="#131313" stroke="#131313" stroke-width="0.2"/>
<path d="M7.02753 3.71396C5.30895 3.71396 3.91099 5.11193 3.91099 6.83051C3.91099 8.54902 5.30896 9.94691 7.02753 9.94691C8.7461 9.94691 10.1441 8.54902 10.1441 6.83051C10.1441 5.11193 8.74611 3.71396 7.02753 3.71396ZM7.02753 8.70816C5.9922 8.70816 5.14967 7.86575 5.14967 6.83044C5.14967 5.79505 5.99214 4.95258 7.02753 4.95258C8.06292 4.95258 8.90539 5.79505 8.90539 6.83044C8.90539 7.86575 8.06286 8.70816 7.02753 8.70816Z" fill="#131313" stroke="#131313" stroke-width="0.2"/>
<path d="M9.56191 3.0851C9.40106 3.24518 9.30894 3.46729 9.30894 3.69456C9.30894 3.92141 9.40128 4.14339 9.56189 4.304C9.72186 4.46398 9.94394 4.55626 10.1706 4.55626C10.3981 4.55626 10.6194 4.46392 10.7799 4.30418L10.7801 4.304C10.9409 4.14322 11.0323 3.9211 11.0323 3.69456C11.0323 3.46742 10.9409 3.24517 10.7799 3.08495L10.7094 3.15583C10.5681 3.01388 10.3714 2.93286 10.1706 2.93286C9.97052 2.93286 9.77393 3.01388 9.6326 3.15583L9.56191 3.0851Z" fill="#131313" stroke="#131313" stroke-width="0.2"/>
</svg>
