<svg width="12" height="16" viewBox="0 0 12 16" fill="none" xmlns="http://www.w3.org/2000/svg">
<path d="M4.82754 9.42885L5.44333 9.80307C5.67558 9.94421 5.85785 10.0704 6.01641 10.1803C6.42082 10.4603 6.67097 10.6336 7.20267 10.6749L4.82754 9.42885ZM4.82754 9.42885L4.69252 10.1367M4.82754 9.42885L4.69252 10.1367M4.69252 10.1367C4.49892 11.1517 4.29064 12.1059 3.96734 12.9265C3.7884 13.3807 3.57864 13.7822 3.32514 14.1237M4.69252 10.1367L3.32514 14.1237M3.32514 14.1237C3.28969 13.0799 3.42428 12.1194 3.62663 11.1875C3.75407 10.6006 3.90723 10.0297 4.06253 9.45074C4.07109 9.41886 4.07965 9.38695 4.08821 9.35502C4.25109 8.74749 4.4148 8.13009 4.54231 7.50062L4.58058 7.3117L4.48214 7.14599C4.16198 6.60702 4.15963 5.71101 4.46675 5.01196C4.6162 4.6718 4.81625 4.43333 5.02493 4.31087C5.21395 4.19996 5.44604 4.16083 5.7542 4.28282L5.75426 4.28284C5.92762 4.35144 6.00337 4.43691 6.04573 4.52095C6.09497 4.61862 6.12443 4.76682 6.11116 4.99058C6.08543 5.42426 5.91774 5.95275 5.72389 6.5637C5.70868 6.61162 5.69332 6.66005 5.67785 6.70898C5.48228 7.3275 5.25893 8.05632 5.30422 8.67647C5.32824 9.00538 5.429 9.34211 5.67659 9.62179C5.92352 9.90075 6.27042 10.0709 6.6884 10.1549L6.68848 10.1549C7.59215 10.3365 8.36491 10.0246 8.9493 9.46142C9.51916 8.91219 9.91465 8.12499 10.1447 7.29808C10.376 6.46657 10.4519 5.55366 10.3476 4.71769C10.2442 3.88949 9.95637 3.08253 9.40629 2.52401L9.40618 2.5239C7.92717 1.02316 5.80105 1.03733 4.1833 1.89124C2.56338 2.74631 1.32865 4.50591 1.67254 6.63226C1.67256 6.63232 1.67257 6.63239 1.67258 6.63246L2.16616 6.55261C2.21676 6.86712 2.36175 7.1062 2.50107 7.33593C2.76656 7.77369 3.01144 8.17749 2.54329 9.00449M3.32514 14.1237L2.54329 9.00449M2.54329 9.00449L2.65152 8.51635C2.51248 8.48552 2.38497 8.44752 2.26798 8.40285M2.54329 9.00449L2.10817 8.75818C2.189 8.61539 2.23853 8.49855 2.26798 8.40285M2.26798 8.40285C1.79971 8.22408 1.49988 7.93862 1.30356 7.57956C1.0447 7.10611 0.938186 6.45283 0.968358 5.62783L0.96837 5.62752C1.0594 3.0949 3.25968 1.26757 5.52224 1.01435L5.52226 1.01434C8.47606 0.683612 11.0337 2.10009 11.3837 4.64042C11.5954 6.18039 11.2641 7.77201 10.5147 8.93231C9.77388 10.0792 8.64431 10.7864 7.20283 10.6749L2.26798 8.40285Z" fill="#131313" stroke="#131313"/>
</svg>
