<svg width="36" height="29" viewBox="0 0 36 29" fill="none" xmlns="http://www.w3.org/2000/svg">
<path d="M3.00177 0.821999C2.41377 0.821999 1.69977 1.144 1.39177 1.494C1.25177 1.662 1.16777 1.998 1.08377 2.376C0.985773 2.782 0.901773 3.23 0.901773 3.538C0.901773 4 1.13977 4.728 1.51777 5.148C1.72777 5.386 2.21777 5.666 2.58177 5.89C3.01577 6.114 3.71577 6.534 3.85577 6.8C3.99577 7.066 4.19177 7.598 4.19177 7.92C4.19177 8.34 4.17777 8.774 4.06577 9.166C3.99577 9.418 3.95377 9.684 3.78577 9.908C3.57577 10.132 3.25377 10.244 2.76377 10.244C2.58177 10.244 2.37177 10.272 2.24577 10.174C1.81177 9.838 1.78377 9.656 1.72777 9.32C1.69977 9.11 1.74177 8.9 1.74177 8.648C1.74177 8.466 1.62977 8.326 1.47577 8.326C1.36377 8.326 1.25177 8.326 1.08377 8.382C0.957773 8.424 0.761773 8.508 0.761773 8.704C0.761773 8.816 0.747773 9.096 0.747773 9.348C0.747773 10.09 1.20977 10.706 1.97977 11.112C2.16177 11.21 2.55377 11.224 2.77777 11.224C3.21177 11.224 3.86977 11.112 4.26177 10.804C4.65377 10.496 4.83577 9.964 4.97577 9.474C5.12977 8.914 5.17177 8.34 5.17177 7.906C5.17177 7.43 4.89177 6.59 4.72377 6.324C4.55577 6.058 3.60377 5.344 3.16977 5.12C2.77777 4.924 2.59577 4.84 2.24577 4.504C1.89577 4.168 1.88177 3.944 1.88177 3.496C1.88177 3.328 2.00777 2.838 2.04977 2.628C2.09177 2.362 2.11977 2.152 2.21777 2.068C2.39977 1.928 2.86177 1.802 3.11377 1.802C3.42177 1.802 3.77177 1.9 3.96777 2.04C4.16377 2.18 4.27577 2.306 4.37377 2.446C4.42977 2.53 4.63977 2.726 4.69577 2.726C4.87777 2.726 5.03177 2.446 5.07377 2.32C5.11577 2.194 5.14377 2.096 5.14377 2.054C5.11577 1.746 4.93377 1.592 4.73777 1.438C4.47177 1.186 4.02377 0.821999 3.00177 0.821999ZM10.0667 0.906C9.68873 0.906 9.43673 0.933999 9.07273 1.06C8.65273 1.214 8.33073 1.424 8.03673 1.774C7.43473 2.516 7.35073 3.748 7.26673 4.672C7.18273 5.26 7.15473 6.422 7.15473 6.73C7.15473 7.486 7.32273 8.242 7.49073 8.914C7.58873 9.348 7.67273 9.796 7.89673 10.188C8.19073 10.706 8.52673 11 9.10073 11.084C9.29673 11.126 9.50673 11.154 9.70273 11.154C10.6547 11.154 11.4527 10.79 11.8447 9.824C12.0827 9.236 12.1947 8.256 12.2227 7.976C12.2507 7.696 12.3207 7.038 12.3207 6.744C12.3207 6.436 12.2367 5.358 12.2367 5.05C12.2367 4.756 12.2227 4.322 12.2227 3.678C12.2227 3.23 11.9987 2.32 11.8027 2.054C11.6487 1.718 11.3547 1.494 11.0467 1.284C10.7667 1.102 10.4167 0.906 10.0667 0.906ZM9.85673 1.9C10.2067 1.9 10.5427 1.998 10.7387 2.278C11.0607 2.74 11.2567 3.44 11.2567 3.86V5.05C11.2567 5.596 11.3547 6.212 11.3547 6.758C11.3547 7.066 11.2707 7.682 11.2007 8.172C11.1447 8.55 11.1167 9.082 10.9347 9.488C10.7947 9.796 10.4307 9.992 10.2207 10.076C10.0107 10.16 9.84273 10.188 9.63273 10.188C9.40873 10.188 9.11473 10.118 8.93273 9.922C8.75073 9.726 8.68073 9.46 8.61073 9.208C8.52673 8.886 8.41473 8.592 8.35873 8.256C8.26073 7.808 8.13473 7.122 8.13473 6.758C8.13473 6.114 8.14873 5.47 8.23273 4.826C8.30273 4.182 8.47073 2.852 8.79273 2.362C8.89073 2.208 9.25473 1.9 9.85673 1.9ZM16.9218 0.836C16.5298 0.836 16.0818 0.947999 15.7318 1.144C15.4238 1.326 15.1718 1.746 15.0738 1.956C14.9758 2.166 14.7378 2.684 14.6818 2.852C14.5278 3.44 14.4718 3.916 14.4718 4.518C14.4718 4.854 14.5558 5.316 14.5558 5.652C14.5558 6.002 14.4438 7.43 14.4438 8.326C14.4438 8.564 14.6818 9.222 14.7518 9.404C14.8918 9.754 14.9898 10.132 15.2698 10.412C15.8158 10.944 16.0118 11.014 16.5438 11.112C16.7258 11.126 16.9078 11.14 17.0758 11.14C17.3558 11.14 17.8038 10.986 18.1118 10.762C18.4618 10.51 18.7838 10.02 18.8538 9.88C18.8818 9.838 18.8958 9.754 18.8958 9.698C18.8958 9.628 18.8818 9.586 18.8678 9.53C18.8398 9.376 18.4198 9.166 18.2518 9.166C18.2098 9.166 18.0138 9.264 17.9578 9.418C17.9018 9.572 17.8178 9.698 17.7758 9.754C17.6218 9.964 17.3978 10.202 17.0058 10.202C16.8238 10.202 16.6558 10.188 16.4738 10.132C16.2498 10.104 15.9978 9.782 15.8998 9.628C15.7038 9.32 15.4238 8.424 15.4238 8.172C15.4238 7.99 15.5218 5.904 15.5218 5.372C15.5218 5.036 15.4518 4.588 15.4518 4.392C15.4518 3.832 15.5638 3.314 15.7458 2.782C15.8438 2.558 15.9978 2.32 16.1518 2.082C16.2918 1.802 16.7678 1.788 17.0338 1.788C17.1738 1.788 17.6358 2.11 17.7758 2.39C17.8878 2.614 17.9018 2.796 17.9998 2.88C18.0698 2.936 18.2098 2.936 18.3778 2.936C18.5598 2.936 18.8678 2.74 18.8678 2.642C18.8678 2.474 18.7838 2.222 18.7418 2.096C18.5038 1.508 17.9718 1.144 17.4678 0.947999C17.2998 0.877999 17.1038 0.836 16.9218 0.836ZM21.8388 0.962C21.6008 0.962 21.3208 1.018 21.3208 1.144C21.3208 1.27 21.3348 1.312 21.3348 1.368C21.3348 1.648 21.2928 2.138 21.2928 2.418C21.2928 3.482 21.3488 4.546 21.3488 5.652C21.3488 6.156 21.2928 6.59 21.2088 7.248C21.1388 7.78 21.0968 8.284 21.0828 8.676C21.0828 8.788 21.1108 9.124 21.1108 9.362C21.1108 9.586 21.0688 9.922 21.0688 10.468C21.0688 10.608 21.0828 10.846 21.0968 10.958C21.1108 11.07 21.3908 11.084 21.5728 11.084C21.6288 11.084 21.7828 11.07 21.8948 11.028C22.0488 10.958 22.0628 10.846 22.0628 10.692C22.0628 10.398 22.0908 9.824 22.0908 9.348C22.0908 9.18 22.0488 8.914 22.0488 8.816C22.0488 8.382 22.0768 7.99 22.1468 7.444C22.2168 6.702 22.3288 6.38 22.3288 5.666C22.3288 4.406 22.2588 3.328 22.2588 2.25C22.2588 2.026 22.3148 1.354 22.2448 1.13C22.2308 1.074 22.0348 0.962 21.8388 0.962ZM27.0256 0.976C26.8996 0.976 26.5356 1.018 26.4516 1.046C26.3396 1.074 26.3256 1.13 26.2976 1.256C26.2136 1.578 25.9616 2.096 25.8636 2.516C25.7656 2.978 25.7236 3.944 25.5556 4.518C25.3596 5.176 25.2056 6.38 25.0236 7.332C24.9536 7.696 24.7436 8.732 24.6316 9.194C24.5756 9.404 24.4356 9.908 24.4216 10.02C24.4076 10.076 24.4076 10.272 24.3936 10.482C24.3796 10.65 24.3516 10.846 24.3516 10.944C24.3516 11.028 24.6736 11.07 24.8696 11.07C25.0096 11.07 25.1496 11.07 25.2336 10.986C25.3176 10.902 25.3596 10.664 25.3736 10.538C25.3876 10.3 25.4016 10.118 25.4716 9.894C25.5556 9.642 25.5696 9.362 25.6396 9.096L25.7656 8.564C25.7936 8.494 26.1016 8.508 26.1856 8.494C26.3816 8.494 26.7316 8.466 26.9416 8.466C27.1936 8.466 27.5296 8.368 27.9216 8.354C27.9776 8.354 28.1876 8.354 28.2576 8.382C28.2856 8.396 28.3836 8.9 28.4116 9.082C28.4256 9.208 28.6076 10.188 28.6356 10.342C28.6636 10.496 28.7476 10.762 28.7896 10.832C28.8736 10.972 29.0416 10.986 29.0976 10.986C29.2376 10.986 29.4056 11.014 29.5316 11.014C29.6016 11.014 29.7836 10.972 29.7836 10.86C29.7836 10.804 29.6156 10.23 29.5736 10.09C29.5456 9.978 29.4896 9.628 29.4336 9.236C29.3776 8.886 29.3216 8.494 29.2236 8.2C28.9296 7.276 28.6216 5.834 28.5376 5.4C28.4536 4.966 28.3556 4.308 28.2996 3.832C28.1736 2.88 27.9636 2.068 27.8796 1.844C27.7536 1.48 27.5856 1.214 27.5296 1.13C27.4736 1.046 27.2496 0.976 27.0256 0.976ZM27.0116 2.306C27.0536 2.306 27.1516 2.614 27.2076 3.006C27.2636 3.426 27.2916 3.944 27.3476 4.196C27.4736 4.756 27.5016 5.47 27.6416 6.03C27.7536 6.506 27.8656 6.87 27.9636 7.346C27.9496 7.402 27.9216 7.402 27.8936 7.402C27.7956 7.402 27.3336 7.5 26.9696 7.5C26.7876 7.5 26.5636 7.486 26.4096 7.486C26.1996 7.486 26.0176 7.486 26.0176 7.458L26.1716 6.548C26.2556 6.072 26.3816 5.484 26.4936 5.022C26.5776 4.532 26.6756 3.16 26.7456 2.852C26.8156 2.544 26.9836 2.306 27.0116 2.306ZM32.0852 0.891999C31.9872 0.891999 31.7072 0.906 31.6652 0.962C31.6232 1.018 31.5392 1.34 31.5392 1.536C31.5532 1.97 31.6512 2.67 31.6512 3.104C31.6512 4.112 31.5252 4.826 31.5252 5.47C31.5252 6.632 31.7352 8.032 31.7352 9.166C31.7352 9.6 31.6232 10.006 31.6232 10.482C31.6232 10.608 31.6232 10.79 31.6932 10.93C31.7352 11.014 31.9872 11.014 32.2672 11.014C32.6032 11.014 32.9812 10.972 33.1212 10.972C33.4292 10.972 33.7232 11.042 34.0312 11.042C34.3672 11.042 35.0112 10.986 35.1232 10.944C35.2352 10.902 35.3192 10.524 35.3192 10.37C35.3192 10.076 35.2772 10.006 35.0252 10.006C34.6892 10.006 34.1292 10.062 33.7932 10.062C33.4852 10.062 33.3732 10.02 33.0092 10.02C32.9812 10.02 32.6592 10.048 32.6312 10.006C32.6032 9.964 32.6872 9.46 32.6872 9.222C32.6872 7.766 32.5052 6.744 32.5052 5.498C32.5052 4.532 32.6452 3.86 32.6452 3.034C32.6452 2.712 32.5192 1.928 32.5192 1.606C32.5192 1.466 32.5612 1.186 32.5612 1.046C32.5612 0.976 32.3092 0.891999 32.0852 0.891999ZM9.21026 17.934C8.98626 17.934 8.72026 17.99 8.72026 18.102C8.72026 18.27 8.76226 18.522 8.76226 18.69C8.76226 18.858 8.65026 19.334 8.63626 19.628C8.62226 20.034 8.56626 20.286 8.56626 20.552C8.56626 20.706 8.59426 20.902 8.59426 21.112C8.59426 21.336 8.56626 21.826 8.56626 22.092C8.56626 22.316 8.51026 22.554 8.51026 23.212V24.808C8.51026 25.312 8.34226 26.18 8.32826 26.88C8.32826 27.146 8.31426 27.426 8.31426 27.692C8.31426 27.748 8.35626 27.944 8.42626 27.972C8.49626 28 8.98626 28.028 9.09826 28.028C9.26626 28.028 9.28026 27.706 9.28026 27.454C9.28026 26.544 9.50426 25.284 9.50426 24.724L9.49026 23.156C9.49026 22.792 9.53226 22.54 9.58826 22.512C9.64426 22.484 10.2043 22.358 10.6383 22.358C10.7503 22.358 11.1843 22.386 11.3383 22.386C11.4783 22.386 11.6603 22.442 11.7863 22.442C12.0803 22.456 12.2763 22.47 12.3043 22.498C12.3323 22.526 12.3883 22.806 12.3883 23.156C12.3883 23.422 12.3323 23.8 12.3323 23.898C12.3323 24.178 12.3743 24.934 12.3743 25.354C12.3743 25.788 12.3183 26.04 12.3183 26.278L12.3323 27.118C12.3323 27.286 12.2763 27.454 12.2763 27.664C12.2763 27.846 12.2763 27.958 12.3463 28.014C12.4163 28.07 12.8503 28.154 13.0463 28.154C13.2563 28.154 13.3403 27.356 13.3403 27.16C13.3403 26.95 13.2983 26.572 13.2983 26.278C13.2983 25.872 13.3403 25.746 13.3403 25.34C13.3263 24.92 13.3123 24.29 13.3123 23.87C13.3123 23.674 13.3683 23.324 13.3683 23.086C13.3823 22.442 13.4663 21.798 13.4663 21.28C13.4663 20.762 13.4943 19.53 13.4943 19.278L13.5083 18.802C13.5083 18.732 13.4523 18.27 13.3403 18.102C13.2843 18.018 13.2423 18.018 13.1443 18.018C12.9203 18.018 12.6263 18.116 12.5423 18.172C12.4863 18.214 12.4723 18.312 12.4723 18.438C12.4723 18.662 12.5283 18.816 12.5283 18.97C12.5283 19.04 12.5143 19.208 12.5143 19.32C12.5003 19.824 12.5143 20.328 12.5143 20.832C12.5143 21.084 12.5003 21.504 12.4163 21.532C12.3323 21.56 11.9963 21.518 11.7303 21.518C11.5623 21.518 11.4083 21.476 11.2963 21.476C11.1703 21.476 10.7783 21.448 10.5823 21.448C10.1203 21.448 9.67226 21.574 9.60226 21.518C9.56026 21.49 9.57426 21.294 9.57426 21.056C9.57426 20.888 9.54626 20.65 9.54626 20.468C9.54626 20.146 9.63026 19.712 9.65826 19.404C9.68626 19.166 9.72826 18.914 9.72826 18.676C9.72826 18.41 9.68626 18.13 9.58826 18.004C9.47626 17.934 9.36426 17.934 9.21026 17.934ZM16.1841 17.99C15.9181 17.99 15.9041 18.718 15.9041 19.054C15.9041 19.306 15.9461 20.986 16.0161 21.756C16.0581 22.26 16.1701 23.8 16.1701 24.038C16.1701 24.276 16.1701 26.222 16.3381 26.95C16.3521 27.034 16.5341 27.426 16.7021 27.58C17.0381 27.902 17.7241 28.126 18.2141 28.126C18.7741 28.126 19.2641 28.084 19.7821 27.832C20.5241 27.286 20.7201 26.404 20.8041 25.508L20.8741 24.514C20.9021 24.122 20.9301 23.744 20.9301 23.352C20.9301 22.792 20.8601 22.414 20.8601 21.882C20.8601 21.42 21.0001 20.048 21.0001 19.39C21.0001 19.054 20.8881 18.564 20.8181 18.242C20.7761 18.102 20.6361 18.018 20.5661 18.018C20.4261 18.018 20.3001 18.032 20.1601 18.074C19.9501 18.144 19.8521 18.228 19.8521 18.34C19.8521 18.466 20.0201 19.082 20.0201 19.432C20.0201 20.174 19.8801 21.07 19.8801 21.91C19.8801 22.232 19.9501 22.89 19.9501 23.31C19.9501 23.758 19.8941 24.388 19.8661 24.906C19.8101 25.816 19.7401 26.292 19.5161 26.67C19.4461 26.796 19.3481 26.908 19.2361 27.006C19.0401 27.16 18.6201 27.188 18.3961 27.188C18.0461 27.188 17.7661 27.174 17.5281 26.978C17.4161 26.88 17.2481 26.782 17.2201 26.572C17.0801 25.676 17.1501 24.36 17.1501 24.01C17.1501 23.66 17.0101 22.372 16.9681 21.63C16.9261 20.972 16.8701 20.314 16.8701 19.642C16.8701 19.348 16.8841 19.068 16.8841 18.774C16.8841 18.438 16.9821 18.158 16.8421 18.116C16.7021 18.074 16.4081 17.99 16.1841 17.99ZM24.6722 18.004C24.3222 18.004 24.0422 18.018 23.6642 18.088C23.4542 18.228 23.4402 18.424 23.4402 18.718C23.4402 18.886 23.4542 19.068 23.4682 19.236C23.5522 19.992 23.5382 20.748 23.5662 21.504C23.5802 21.84 23.6222 22.162 23.6222 22.498C23.6222 22.89 23.4822 23.604 23.4542 23.968C23.3982 24.864 23.3982 25.774 23.3982 26.656C23.3982 26.754 23.4542 27.118 23.4822 27.3C23.5102 27.482 23.5102 28.196 23.8182 28.196C24.1262 28.196 24.6722 28.196 25.0642 28.154C25.8342 28.07 26.4782 27.832 27.0242 27.328C27.4162 26.922 27.6682 26.376 27.7662 25.83C27.8082 25.606 27.8082 25.298 27.8082 25.06C27.8082 24.766 27.7102 24.234 27.6122 23.87C27.5282 23.548 27.4582 23.38 27.3602 23.226C27.1922 22.974 26.7862 22.708 26.7862 22.624C26.7862 22.526 27.4862 22.232 27.7382 21.266C27.7662 21.14 27.8082 20.93 27.8082 20.776C27.7942 20.678 27.7522 20.482 27.7522 20.44C27.7522 20.216 27.7382 19.852 27.6262 19.586C27.2342 18.676 26.6742 18.536 26.3382 18.438C26.0162 18.34 25.4002 18.004 24.6722 18.004ZM24.4622 18.97C24.5322 18.97 24.6722 18.97 24.7282 18.984C25.0782 19.04 25.4282 19.11 25.7362 19.236C26.0442 19.348 26.3242 19.32 26.6042 19.656C26.7442 19.824 26.7582 20.062 26.7722 20.272C26.7862 20.412 26.8282 20.594 26.8282 20.762C26.8282 20.846 26.8142 20.944 26.7862 21.014C26.6322 21.392 26.4222 21.854 26.0022 21.966C25.8762 22.008 24.6862 22.162 24.6302 22.162C24.6022 21.924 24.5602 21.63 24.5602 21.392C24.5602 21.056 24.5322 20.692 24.5322 20.37C24.5322 20.076 24.5462 19.796 24.5042 19.502C24.4762 19.292 24.3922 18.97 24.4622 18.97ZM25.4842 23.086C25.6242 23.086 25.7502 23.086 25.8342 23.1C26.0302 23.254 26.2682 23.436 26.3942 23.604C26.5062 23.744 26.5342 23.898 26.6042 24.066C26.7302 24.374 26.8282 24.808 26.8282 25.074C26.8282 25.648 26.6322 26.292 26.2822 26.684C26.0162 26.922 25.6242 27.076 25.2742 27.132C25.0222 27.174 24.7422 27.216 24.4902 27.216C24.4202 27.216 24.4202 27.02 24.4202 26.922C24.4202 26.852 24.3502 25.732 24.3642 25.102C24.3922 24.766 24.4482 24.192 24.4482 23.842C24.4482 23.646 24.5742 23.212 24.6162 23.156C24.6442 23.114 25.1062 23.086 25.4842 23.086Z" fill="#131313"/>
</svg>
