<svg width="14" height="18" viewBox="0 0 14 18" fill="none" xmlns="http://www.w3.org/2000/svg">
<path d="M13.2484 9.28746L13.2484 9.28745C13.1904 9.02385 13.0659 8.81065 12.8693 8.6339C12.6692 8.45425 12.4485 8.35402 12.1957 8.32299C11.0862 8.20264 9.394 8.14087 7.10647 8.14087C4.81846 8.14087 3.12921 8.2027 2.02598 8.32303C1.76586 8.35433 1.5451 8.45523 1.35043 8.63204L13.2484 9.28746ZM13.2484 9.28746L13.2497 9.29301M13.2484 9.28746L13.2497 9.29301M13.2497 9.29301C13.3967 9.92689 13.4778 10.9611 13.4779 12.4256C13.4779 12.931 13.4679 13.3868 13.4485 13.7942V13.7602H13.4485V13.2602V12.305C13.4485 11.7796 13.3627 11.2913 13.1018 10.9344L13.1019 10.9343L13.0955 10.9258C12.7552 10.4804 12.2771 10.2565 11.7152 10.2565C11.1497 10.2565 10.6678 10.4784 10.3257 10.9255L10.3239 10.9278C10.2794 10.9867 10.2398 11.0492 10.2046 11.1148C10.1302 10.8786 10.0032 10.6565 9.79724 10.494C9.58308 10.3251 9.32938 10.2568 9.07269 10.2568C8.94599 10.2568 8.82516 10.2741 8.71019 10.3062V9.24515V8.74515H8.21019H7.38504H6.88504V9.24515V10.3121H6.66151H5.83623H5.60358H5.33623H5.10358H4.6579V10.1168V9.24515V8.74515H4.1579H1.26474H1.23967M13.2497 9.29301L1.23967 8.74515M1.23967 8.74515C1.27379 8.70583 1.31066 8.6682 1.35031 8.63214L1.23967 8.74515ZM0.96444 15.5634L0.964469 15.5634L0.963251 15.5582C0.816143 14.9243 0.735107 13.8903 0.735107 12.4256C0.735107 11.7297 0.754023 11.1277 0.790351 10.6168H1.26474H1.73845V15.3929V15.8929H2.23845H3.16568H3.66568V15.3929V10.6168H3.7783V10.8121V14.4377C3.7783 14.7532 3.80243 15.044 3.87751 15.2707C3.94556 15.4795 4.07404 15.6662 4.2736 15.7935C4.46639 15.9165 4.68407 15.9578 4.89026 15.9578C5.04554 15.9578 5.19422 15.9284 5.3362 15.876V15.8929H5.8362H6.66148H6.66151H6.88504V15.893H7.38504H8.21019H8.66884C8.7963 15.9348 8.93089 15.9578 9.07269 15.9578C9.32732 15.9578 9.57973 15.8914 9.79374 15.7256C10.0036 15.5631 10.1326 15.339 10.2073 15.1004C10.2079 15.0988 10.2084 15.0971 10.2089 15.0955C10.2464 15.1643 10.2888 15.2296 10.3367 15.291C10.6802 15.7386 11.1658 15.9578 11.7335 15.9578C12.3201 15.9578 12.8205 15.7307 13.1488 15.2472L13.1509 15.2441C13.2479 15.099 13.3241 14.9447 13.3732 14.7822C13.3396 15.0822 13.2982 15.3408 13.2495 15.5587C13.1855 15.8261 13.0577 16.0419 12.8627 16.219L12.8626 16.2191C12.6677 16.3962 12.4517 16.4924 12.2014 16.5183L12.2014 16.5183L12.1961 16.5189C11.0883 16.6454 9.39568 16.7104 7.10653 16.7104C4.81724 16.7104 3.12492 16.6454 2.01664 16.5189L2.01664 16.5189L2.01145 16.5183C1.76097 16.4924 1.54244 16.3958 1.34379 16.2173L1.34364 16.2171C1.14722 16.0407 1.02268 15.8273 0.96444 15.5634Z" fill="#131313" stroke="#131313"/>
<mask id="path-2-inside-1" fill="white">
<path d="M8.62721 11.5076C8.48496 11.5076 8.34601 11.5758 8.20996 11.7116V14.5026C8.34598 14.6386 8.48496 14.7066 8.62721 14.7066C8.86817 14.7066 8.98902 14.4996 8.98902 14.0853V12.1289C8.98899 11.7146 8.86843 11.5076 8.62721 11.5076Z"/>
</mask>
<path d="M8.62721 11.5076C8.48496 11.5076 8.34601 11.5758 8.20996 11.7116V14.5026C8.34598 14.6386 8.48496 14.7066 8.62721 14.7066C8.86817 14.7066 8.98902 14.4996 8.98902 14.0853V12.1289C8.98899 11.7146 8.86843 11.5076 8.62721 11.5076Z" fill="#131313"/>
<path d="M8.20996 11.7116L7.50345 11.0039L7.20996 11.2969V11.7116H8.20996ZM8.20996 14.5026H7.20996V14.917L7.50302 15.2099L8.20996 14.5026ZM8.98902 12.1289H9.98902V12.1288L8.98902 12.1289ZM8.62721 10.5076C8.13611 10.5076 7.75781 10.75 7.50345 11.0039L8.91648 12.4193C8.92501 12.4108 8.90613 12.4322 8.85597 12.4568C8.8013 12.4836 8.72204 12.5076 8.62721 12.5076V10.5076ZM7.20996 11.7116V14.5026H9.20996V11.7116H7.20996ZM7.50302 15.2099C7.75846 15.4652 8.13698 15.7066 8.62721 15.7066V13.7066C8.72142 13.7066 8.80049 13.7303 8.85543 13.7572C8.90588 13.7819 8.92506 13.8035 8.9169 13.7954L7.50302 15.2099ZM8.62721 15.7066C9.10077 15.7066 9.52162 15.4681 9.76248 15.0548C9.95517 14.7241 9.98902 14.357 9.98902 14.0853H7.98902C7.98902 14.1432 7.98455 14.1673 7.98474 14.1664C7.98502 14.1649 7.98735 14.1532 7.99414 14.1338C8.00094 14.1144 8.01325 14.0842 8.03447 14.0478C8.07925 13.971 8.16008 13.8735 8.28869 13.7998C8.417 13.7264 8.54083 13.7066 8.62721 13.7066V15.7066ZM9.98902 14.0853V12.1289H7.98902V14.0853H9.98902ZM9.98902 12.1288C9.989 11.8575 9.95528 11.4903 9.76272 11.1597C9.52184 10.746 9.10083 10.5076 8.62721 10.5076V12.5076C8.54099 12.5076 8.41716 12.4878 8.28877 12.4143C8.16005 12.3406 8.07918 12.243 8.0344 12.1661C8.01318 12.1296 8.00088 12.0995 7.99409 12.0801C7.98732 12.0607 7.98499 12.049 7.98472 12.0476C7.98455 12.0467 7.98902 12.0709 7.98902 12.129L9.98902 12.1288Z" fill="#131313" mask="url(#path-2-inside-1)"/>
<mask id="path-4-inside-2" fill="white">
<path d="M11.7061 11.5076C11.4279 11.5076 11.2888 11.7179 11.2888 12.138V12.5646H12.1233V12.138C12.1233 11.7176 11.9842 11.5076 11.7061 11.5076Z"/>
</mask>
<path d="M11.7061 11.5076C11.4279 11.5076 11.2888 11.7179 11.2888 12.138V12.5646H12.1233V12.138C12.1233 11.7176 11.9842 11.5076 11.7061 11.5076Z" fill="#131313"/>
<path d="M11.2888 12.5646H10.2888V13.5646H11.2888V12.5646ZM12.1233 12.5646V13.5646H13.1233V12.5646H12.1233ZM11.7061 10.5076C11.2723 10.5076 10.8354 10.696 10.5592 11.1134C10.3309 11.4584 10.2888 11.8492 10.2888 12.138H12.2888C12.2888 12.085 12.2935 12.0682 12.2914 12.0777C12.2894 12.0867 12.2761 12.1429 12.2271 12.2171C12.1736 12.2979 12.0891 12.3818 11.9735 12.44C11.8619 12.4963 11.7633 12.5076 11.7061 12.5076V10.5076ZM10.2888 12.138V12.5646H12.2888V12.138H10.2888ZM11.2888 13.5646H12.1233V11.5646H11.2888V13.5646ZM13.1233 12.5646V12.138H11.1233V12.5646H13.1233ZM13.1233 12.138C13.1233 11.8492 13.0812 11.4582 12.8528 11.1132C12.5765 10.6957 12.1395 10.5076 11.7061 10.5076V12.5076C11.649 12.5076 11.5504 12.4963 11.4388 12.4401C11.3232 12.3819 11.2386 12.298 11.1851 12.2171C11.136 12.1429 11.1227 12.0866 11.1207 12.0776C11.1186 12.0682 11.1233 12.0849 11.1233 12.138H13.1233Z" fill="#131313" mask="url(#path-4-inside-2)"/>
<mask id="path-6-inside-3" fill="white">
<path d="M3.62035 4.29337V6.8064H4.54758V4.29337L5.66943 0.593506H4.72362L4.09321 3.03229L3.43477 0.593506H2.4519C2.62502 1.11284 2.82593 1.69079 3.05467 2.32757C3.34526 3.18062 3.5337 3.836 3.62035 4.29337Z"/>
</mask>
<path d="M3.62035 4.29337V6.8064H4.54758V4.29337L5.66943 0.593506H4.72362L4.09321 3.03229L3.43477 0.593506H2.4519C2.62502 1.11284 2.82593 1.69079 3.05467 2.32757C3.34526 3.18062 3.5337 3.836 3.62035 4.29337Z" fill="#131313"/>
<path d="M3.62035 4.29337H4.62035V4.19947L4.60287 4.10722L3.62035 4.29337ZM3.62035 6.8064H2.62035V7.8064H3.62035V6.8064ZM4.54758 6.8064V7.8064H5.54758V6.8064H4.54758ZM4.54758 4.29337L3.59061 4.0032L3.54758 4.14509V4.29337H4.54758ZM5.66943 0.593506L6.6264 0.883673L7.0176 -0.406494H5.66943V0.593506ZM4.72362 0.593506V-0.406494H3.94924L3.75544 0.343239L4.72362 0.593506ZM4.09321 3.03229L3.12778 3.29294L4.11423 6.94668L5.06139 3.28256L4.09321 3.03229ZM3.43477 0.593506L4.4002 0.332852L4.20059 -0.406494H3.43477V0.593506ZM2.4519 0.593506V-0.406494H1.06448L1.50322 0.909734L2.4519 0.593506ZM3.05467 2.32757L4.00126 2.00512L3.99859 1.99728L3.99579 1.98949L3.05467 2.32757ZM2.62035 4.29337V6.8064H4.62035V4.29337H2.62035ZM3.62035 7.8064H4.54758V5.8064H3.62035V7.8064ZM5.54758 6.8064V4.29337H3.54758V6.8064H5.54758ZM5.50456 4.58353L6.6264 0.883673L4.71245 0.303339L3.59061 4.0032L5.50456 4.58353ZM5.66943 -0.406494H4.72362V1.59351H5.66943V-0.406494ZM3.75544 0.343239L3.12503 2.78202L5.06139 3.28256L5.69179 0.843773L3.75544 0.343239ZM5.05864 2.77164L4.4002 0.332852L2.46934 0.854159L3.12778 3.29294L5.05864 2.77164ZM3.43477 -0.406494H2.4519V1.59351H3.43477V-0.406494ZM1.50322 0.909734C1.67926 1.43785 1.88279 2.02325 2.11356 2.66564L3.99579 1.98949C3.76907 1.35834 3.57077 0.787822 3.40059 0.277278L1.50322 0.909734ZM2.10809 2.65002C2.39466 3.4913 2.56462 4.09309 2.63783 4.47952L4.60287 4.10722C4.50278 3.57892 4.29586 2.86994 4.00126 2.00512L2.10809 2.65002Z" fill="#131313" mask="url(#path-6-inside-3)"/>
<mask id="path-8-inside-4" fill="white">
<path d="M6.91199 6.87135C7.33856 6.87135 7.66611 6.7137 7.89485 6.39843C8.06803 6.16968 8.15449 5.80492 8.15449 5.30426V3.68143C8.15449 3.18695 8.0678 2.8252 7.89485 2.59646C7.66611 2.28119 7.33856 2.12354 6.91199 2.12354C6.49769 2.12354 6.1731 2.28119 5.93828 2.59646C5.76527 2.8252 5.67871 3.18695 5.67871 3.68143V5.30423C5.67871 5.79871 5.76517 6.16351 5.93828 6.3984C6.1732 6.7137 6.49766 6.87135 6.91199 6.87135ZM6.51318 3.51449C6.51318 3.08792 6.64612 2.87463 6.91199 2.87463C7.17786 2.87463 7.31066 3.08792 7.31066 3.51449V5.46175C7.31066 5.89462 7.17786 6.11083 6.91199 6.11083C6.64612 6.11083 6.51318 5.89449 6.51318 5.46175V3.51449Z"/>
</mask>
<path d="M6.91199 6.87135C7.33856 6.87135 7.66611 6.7137 7.89485 6.39843C8.06803 6.16968 8.15449 5.80492 8.15449 5.30426V3.68143C8.15449 3.18695 8.0678 2.8252 7.89485 2.59646C7.66611 2.28119 7.33856 2.12354 6.91199 2.12354C6.49769 2.12354 6.1731 2.28119 5.93828 2.59646C5.76527 2.8252 5.67871 3.18695 5.67871 3.68143V5.30423C5.67871 5.79871 5.76517 6.16351 5.93828 6.3984C6.1732 6.7137 6.49766 6.87135 6.91199 6.87135ZM6.51318 3.51449C6.51318 3.08792 6.64612 2.87463 6.91199 2.87463C7.17786 2.87463 7.31066 3.08792 7.31066 3.51449V5.46175C7.31066 5.89462 7.17786 6.11083 6.91199 6.11083C6.64612 6.11083 6.51318 5.89449 6.51318 5.46175V3.51449Z" fill="#131313"/>
<path d="M7.89485 6.39843L7.09756 5.79483L7.09143 5.80294L7.08546 5.81117L7.89485 6.39843ZM7.89485 2.59646L7.08546 3.18372L7.09124 3.19169L7.09718 3.19955L7.89485 2.59646ZM5.93828 2.59646L6.73586 3.19971L6.74027 3.1938L5.93828 2.59646ZM5.93828 6.3984L5.13327 6.99169L5.13638 6.99586L5.93828 6.3984ZM6.91199 7.87135C7.62359 7.87135 8.26757 7.58755 8.70425 6.98569L7.08546 5.81117C7.06123 5.84455 7.04783 5.85017 7.04399 5.85202C7.03698 5.85539 7.00099 5.87135 6.91199 5.87135V7.87135ZM8.69214 7.00203C9.06359 6.51138 9.15449 5.87753 9.15449 5.30426H7.15449C7.15449 5.5011 7.13709 5.63618 7.11661 5.7225C7.096 5.80939 7.07882 5.8196 7.09756 5.79483L8.69214 7.00203ZM9.15449 5.30426V3.68143H7.15449V5.30426H9.15449ZM9.15449 3.68143C9.15449 3.11036 9.06197 2.48201 8.69252 1.99336L7.09718 3.19955C7.07972 3.17646 7.09672 3.18739 7.117 3.2721C7.1372 3.35649 7.15449 3.48869 7.15449 3.68143H9.15449ZM8.70425 2.00919C8.26757 1.40734 7.62359 1.12354 6.91199 1.12354V3.12354C7.00099 3.12354 7.03698 3.13949 7.04399 3.14287C7.04783 3.14472 7.06123 3.15033 7.08546 3.18372L8.70425 2.00919ZM6.91199 1.12354C6.20168 1.12354 5.57141 1.41492 5.13629 1.99912L6.74027 3.1938C6.77069 3.15295 6.7892 3.14397 6.79472 3.14129C6.80201 3.13774 6.83375 3.12354 6.91199 3.12354V1.12354ZM5.14072 1.99322C4.77098 2.48206 4.67871 3.11069 4.67871 3.68143H6.67871C6.67871 3.48858 6.69598 3.35636 6.71617 3.27197C6.73643 3.18728 6.7534 3.17648 6.73584 3.19969L5.14072 1.99322ZM4.67871 3.68143V5.30423H6.67871V3.68143H4.67871ZM4.67871 5.30423C4.67871 5.87818 4.77214 6.50167 5.13328 6.99168L6.74327 5.80511C6.7558 5.82212 6.73728 5.80516 6.71659 5.71789C6.69592 5.63074 6.67871 5.4969 6.67871 5.30423H4.67871ZM5.13638 6.99586C5.57149 7.57985 6.20149 7.87135 6.91199 7.87135V5.87135C6.83374 5.87135 6.80205 5.85714 6.79479 5.85362C6.7893 5.85095 6.77073 5.84195 6.74018 5.80094L5.13638 6.99586ZM7.51318 3.51449C7.51318 3.45673 7.51795 3.43435 7.5172 3.43797C7.51667 3.44051 7.50618 3.49192 7.46154 3.56354C7.41272 3.64187 7.33039 3.73158 7.20912 3.79644C7.09034 3.85996 6.98111 3.87463 6.91199 3.87463V1.87463C6.45796 1.87463 6.02572 2.08611 5.76423 2.50566C5.55172 2.84661 5.51318 3.22972 5.51318 3.51449H7.51318ZM6.91199 3.87463C6.84287 3.87463 6.73359 3.85996 6.61475 3.79639C6.49341 3.73148 6.41106 3.64171 6.36225 3.56335C6.31762 3.49172 6.30715 3.44032 6.30663 3.43783C6.30589 3.43425 6.31066 3.45668 6.31066 3.51449H8.31066C8.31066 3.22986 8.2722 2.84679 8.0598 2.50584C7.79836 2.08618 7.36608 1.87463 6.91199 1.87463V3.87463ZM6.31066 3.51449V5.46175H8.31066V3.51449H6.31066ZM6.31066 5.46175C6.31066 5.52188 6.30578 5.54664 6.30606 5.54531C6.30608 5.54518 6.31567 5.49565 6.35892 5.42524C6.40628 5.34814 6.48761 5.25747 6.60965 5.19127C6.72958 5.12622 6.84074 5.11083 6.91199 5.11083V7.11083C7.37241 7.11083 7.80452 6.89303 8.06313 6.47199C8.27262 6.13092 8.31066 5.74788 8.31066 5.46175H6.31066ZM6.91199 5.11083C6.98333 5.11083 7.09448 5.12625 7.21435 5.19128C7.33631 5.25744 7.41758 5.34804 7.46491 5.42506C7.50814 5.49542 7.51774 5.54492 7.51777 5.54509C7.51806 5.54648 7.51318 5.52177 7.51318 5.46175H5.51318C5.51318 5.74801 5.55132 6.13103 5.76086 6.47207C6.01942 6.89288 6.45141 7.11083 6.91199 7.11083V5.11083ZM7.51318 5.46175V3.51449H5.51318V5.46175H7.51318Z" fill="#131313" mask="url(#path-8-inside-4)"/>
<mask id="path-10-inside-5" fill="white">
<path d="M9.46165 6.87135C9.77094 6.87135 10.0894 6.67969 10.4169 6.29631V6.80632H11.2608V2.1792H10.4169V5.71212C10.2314 5.97799 10.0554 6.1108 9.88822 6.1108C9.77685 6.1108 9.71193 6.04282 9.69348 5.90683C9.68728 5.89446 9.68416 5.78617 9.68416 5.58224V2.1792H8.84033V5.83278C8.84033 6.14798 8.86524 6.37972 8.91458 6.52818C8.99503 6.75692 9.17733 6.87135 9.46165 6.87135Z"/>
</mask>
<path d="M9.46165 6.87135C9.77094 6.87135 10.0894 6.67969 10.4169 6.29631V6.80632H11.2608V2.1792H10.4169V5.71212C10.2314 5.97799 10.0554 6.1108 9.88822 6.1108C9.77685 6.1108 9.71193 6.04282 9.69348 5.90683C9.68728 5.89446 9.68416 5.78617 9.68416 5.58224V2.1792H8.84033V5.83278C8.84033 6.14798 8.86524 6.37972 8.91458 6.52818C8.99503 6.75692 9.17733 6.87135 9.46165 6.87135Z" fill="#131313"/>
<path d="M10.4169 6.29631H11.4169V3.5864L9.65664 5.64674L10.4169 6.29631ZM10.4169 6.80632H9.41694V7.80632H10.4169V6.80632ZM11.2608 6.80632V7.80632H12.2608V6.80632H11.2608ZM11.2608 2.1792H12.2608V1.1792H11.2608V2.1792ZM10.4169 2.1792V1.1792H9.41694V2.1792H10.4169ZM10.4169 5.71212L11.237 6.28436L11.4169 6.02652V5.71212H10.4169ZM9.69348 5.90683L10.6844 5.7724L10.662 5.60747L10.5874 5.45868L9.69348 5.90683ZM9.68416 2.1792H10.6842V1.1792H9.68416V2.1792ZM8.84033 2.1792V1.1792H7.84033V2.1792H8.84033ZM8.91458 6.52818L7.9656 6.84353L7.96834 6.85177L7.97122 6.85995L8.91458 6.52818ZM9.46165 7.87135C10.2053 7.87135 10.7768 7.41454 11.1772 6.94589L9.65664 5.64674C9.53955 5.78378 9.45755 5.84627 9.41675 5.87083C9.38171 5.89192 9.40101 5.87135 9.46165 5.87135V7.87135ZM9.41694 6.29631V6.80632H11.4169V6.29631H9.41694ZM10.4169 7.80632H11.2608V5.80632H10.4169V7.80632ZM12.2608 6.80632V2.1792H10.2608V6.80632H12.2608ZM11.2608 1.1792H10.4169V3.1792H11.2608V1.1792ZM9.41694 2.1792V5.71212H11.4169V2.1792H9.41694ZM9.59685 5.13988C9.53879 5.22309 9.51806 5.23199 9.54359 5.21273C9.57358 5.19012 9.6941 5.1108 9.88822 5.1108V7.1108C10.5904 7.1108 11.0286 6.58305 11.237 6.28436L9.59685 5.13988ZM9.88822 5.1108C10.0511 5.1108 10.2883 5.16925 10.4792 5.36921C10.6456 5.54338 10.6777 5.72334 10.6844 5.7724L8.70256 6.04126C8.72766 6.22631 8.80154 6.50825 9.03276 6.7504C9.28861 7.01835 9.614 7.1108 9.88822 7.1108V5.1108ZM10.5874 5.45868C10.6162 5.51603 10.6336 5.56483 10.6433 5.59439C10.6537 5.62601 10.6606 5.65263 10.665 5.67111C10.6736 5.70709 10.6782 5.73557 10.6803 5.7499C10.6847 5.77892 10.6862 5.7994 10.6864 5.80255C10.6871 5.81136 10.6867 5.80899 10.6861 5.78764C10.6849 5.74806 10.6842 5.68138 10.6842 5.58224H8.68416C8.68416 5.68703 8.68493 5.77646 8.6869 5.8451C8.68785 5.87785 8.68937 5.91762 8.69238 5.95659C8.69378 5.97482 8.69658 6.00738 8.70228 6.04549C8.7051 6.06436 8.71038 6.09664 8.7197 6.13566C8.72603 6.16218 8.74755 6.2513 8.79952 6.35498L10.5874 5.45868ZM10.6842 5.58224V2.1792H8.68416V5.58224H10.6842ZM9.68416 1.1792H8.84033V3.1792H9.68416V1.1792ZM7.84033 2.1792V5.83278H9.84033V2.1792H7.84033ZM7.84033 5.83278C7.84033 6.17032 7.86336 6.53585 7.9656 6.84353L9.86355 6.21282C9.86944 6.23055 9.86136 6.21219 9.85328 6.13666C9.8457 6.06577 9.84033 5.96614 9.84033 5.83278H7.84033ZM7.97122 6.85995C8.07645 7.15917 8.27322 7.44003 8.58022 7.63263C8.87409 7.817 9.19038 7.87135 9.46165 7.87135V5.87135C9.44859 5.87135 9.53158 5.86848 9.64311 5.93845C9.76776 6.01665 9.83315 6.12594 9.85794 6.1964L7.97122 6.85995Z" fill="#131313" mask="url(#path-10-inside-5)"/>
</svg>
